<svg height="512pt" viewBox="0 0 512.001 512" width="512pt" xmlns="http://www.w3.org/2000/svg"><g fill-rule="evenodd"><path d="m198.859375 109.792969c49.195313 0 89.074219 39.875 89.074219 89.070312 0 49.191407-39.878906 89.070313-89.074219 89.070313-49.191406 0-89.066406-39.878906-89.066406-89.070313 0-49.195312 39.875-89.070312 89.066406-89.070312zm125.621094 170.171875c9.652343-14.925782 16.71875-31.675782 20.566406-49.625h42.675781v-62.953125h-42.667968c-3.847657-17.953125-10.917969-34.707031-20.574219-49.628907l30.183593-30.183593-44.515624-44.515625-30.183594 30.183594c-14.925782-9.65625-31.679688-16.726563-49.625-20.574219v-42.667969h-62.957032v42.667969c-17.945312 3.851562-34.699218 10.921875-49.621093 20.578125l-30.1875-30.1875-44.515625 44.515625 30.1875 30.1875c-9.65625 14.921875-16.722656 31.675781-20.570313 49.625h-42.675781v62.953125h42.667969c3.847656 17.949218 10.917969 34.703125 20.574219 49.628906l-30.183594 30.179688 44.515625 44.515624 30.183593-30.183593c14.921876 9.660156 31.675782 16.730469 49.628907 20.578125v42.664062h54.613281v-85.722656c0-11 9-20 20-20h84.515625zm0 0" fill="#858fa6"/><path d="m287.933594 198.863281c0-49.191406-39.878906-89.070312-89.074219-89.070312-49.191406 0-89.066406 39.875-89.066406 89.070312 0 49.191407 39.875 89.070313 89.066406 89.070313 49.195313 0 89.074219-39.878906 89.074219-89.070313zm-138.140625 0c0-27.101562 21.96875-49.070312 49.066406-49.070312 27.101563 0 49.070313 21.96875 49.070313 49.070312 0 27.101563-21.96875 49.070313-49.070313 49.070313-27.097656 0-49.066406-21.972656-49.066406-49.070313zm0 0" fill="#ffc059"/><path d="m247.929688 198.863281c0 27.101563-21.96875 49.070313-49.070313 49.070313-27.097656 0-49.066406-21.96875-49.066406-49.070313 0-27.101562 21.96875-49.070312 49.066406-49.070312 27.101563 0 49.070313 21.96875 49.070313 49.070312zm0 0" fill="#b5bbc9"/><path d="m326.515625 282h-84.515625c-11 0-20 9-20 20v180c0 11 9 20 20 20h240c11 0 20-9 20-20v-180c0-11-9-20-20-20zm15.484375 100.003906v-20c0-11 9-20 20-20s20 9 20 20v20c0 11-9 20-20 20s-20-9-20-20zm100 59.996094c-11 0-20-9-20-20v-20c0-11 9-20 20-20s20 9 20 20v20c0 11-9 20-20 20zm-179.996094-40c0-11 8.996094-20 19.996094-20s20 9 20 20v20c0 11-9 20-20 20s-20-9-20-20v-20zm0 0" fill="#b0e7f7"/><path d="m282 382c-11 0-19.996094 8.996094-19.996094 19.996094v20.003906c0 11 8.996094 20 19.996094 20s20-9 20-20v-20c0-11-9-20-20-20zm0 0" fill="#ffc059"/><path d="m342 362.003906v20c0 11 9 20 20 20s20-9 20-20v-20c0-11-9-20-20-20s-20 9-20 20zm0 0" fill="#ffc059"/><path d="m422 402v20c0 11 9 20 20 20s20-9 20-20v-20c0-11-9-20-20-20s-20 9-20 20zm0 0" fill="#ffc059"/></g><path d="m198.859375 257.933594c32.574219 0 59.070313-26.5 59.070313-59.070313 0-32.570312-26.496094-59.070312-59.070313-59.070312-32.570313 0-59.066406 26.5-59.066406 59.070312 0 32.570313 26.496093 59.070313 59.066406 59.070313zm0-98.140625c21.542969 0 39.070313 17.527343 39.070313 39.070312s-17.527344 39.066407-39.070313 39.066407-39.066406-17.523438-39.066406-39.066407 17.523437-39.070312 39.066406-39.070312zm0 0"/><path d="m198.863281 208.863281c5.523438 0 10-4.480469 10-10 0-5.523437-4.476562-10-10-10h-.003906c-5.523437 0-10 4.476563-10 10 0 5.519531 4.484375 10 10.003906 10zm0 0"/><path d="m482 272h-141.371094c5.222656-10.089844 9.34375-20.671875 12.289063-31.660156h34.804687c5.523438 0 10-4.480469 10-10v-62.953125c0-5.523438-4.476562-10-10-10h-34.792968c-3.585938-13.355469-8.878907-26.128907-15.808594-38.125l24.613281-24.617188c3.90625-3.90625 3.90625-10.238281 0-14.140625l-44.515625-44.515625c-3.902344-3.902343-10.234375-3.90625-14.140625 0l-24.617187 24.613281c-12-6.929687-24.769532-12.222656-38.125-15.804687v-34.796875c0-5.523438-4.476563-10-10-10h-62.953126c-5.523437 0-10 4.476562-10 10v34.796875c-13.351562 3.585937-26.121093 8.878906-38.121093 15.808594l-24.617188-24.617188c-3.902343-3.90625-10.238281-3.90625-14.140625 0l-44.515625 44.515625c-3.90625 3.902344-3.90625 10.234375 0 14.140625l24.617188 24.617188c-6.925781 12-12.21875 24.765625-15.800781 38.125h-34.804688c-5.523438 0-10 4.476562-10 10v62.953125c0 5.519531 4.476562 10 10 10h34.796875c3.582031 13.355468 8.875 26.125 15.804687 38.125l-24.613281 24.613281c-1.875 1.875-2.929687 4.417969-2.929687 7.070313 0 2.652343 1.054687 5.195312 2.929687 7.070312l44.515625 44.515625c1.875 1.875 4.417969 2.929687 7.070313 2.929687 2.652343 0 5.195312-1.054687 7.070312-2.929687l24.613281-24.613281c12 6.929687 24.769532 12.226562 38.128907 15.808594v34.792968c0 5.523438 4.476562 10 10 10h44.613281v84.277344c0 16.542969 13.460938 30 30 30h130c5.523438 0 10-4.476562 10-10 0-5.519531-4.476562-10-10-10h-130c-5.511719 0-10-4.484375-10-10v-180c0-5.511719 4.488281-10 10-10h240c5.515625 0 10 4.488281 10 10v180c0 5.515625-4.484375 10-10 10h-20c-5.523438 0-10 4.480469-10 10 0 5.523438 4.476562 10 10 10h20c16.542969 0 30-13.457031 30-30v-180c0-16.539062-13.457031-30-30-30zm-304.617188 105.722656v-32.664062c0-4.714844-3.292968-8.792969-7.902343-9.78125-16.503907-3.535156-32.078125-9.992188-46.292969-19.191406-3.957031-2.5625-9.167969-2.007813-12.503906 1.324218l-23.109375 23.113282-30.375-30.375 23.113281-23.109376c3.332031-3.335937 3.886719-8.542968 1.324219-12.503906-9.195313-14.214844-15.652344-29.792968-19.191407-46.292968-.988281-4.609376-5.0625-7.902344-9.777343-7.902344h-32.667969v-42.953125h32.675781c4.714844 0 8.789063-3.296875 9.777344-7.90625 3.539063-16.503907 9.992187-32.078125 19.1875-46.289063 2.5625-3.957031 2.007813-9.167968-1.324219-12.503906l-23.117187-23.113281 30.375-30.371094 23.117187 23.113281c3.332032 3.332032 8.539063 3.886719 12.5 1.324219 14.21875-9.199219 29.789063-15.65625 46.289063-19.195313 4.609375-.988281 7.902343-5.0625 7.902343-9.777343v-32.667969h42.953126v32.667969c0 4.714843 3.292968 8.789062 7.90625 9.777343 16.5 3.539063 32.074218 9.996094 46.289062 19.191407 3.960938 2.558593 9.167969 2.007812 12.503906-1.324219l23.113282-23.109375 30.371093 30.371094-23.109375 23.109375c-3.335937 3.335937-3.886718 8.546875-1.324218 12.503906 9.195312 14.214844 15.652343 29.792969 19.191406 46.292969.988281 4.609375 5.0625 7.902343 9.777344 7.902343h32.664062v42.953126h-32.675781c-4.714844 0-8.789063 3.296874-9.777344 7.90625-3.328125 15.527343-9.238281 30.230468-17.585937 43.757812h-52.066407c19.84375-18.128906 32.316407-44.203125 32.316407-73.140625 0-54.625-44.441407-99.066406-99.070313-99.066406-8.484375 0-16.921875 1.078125-25.074219 3.207031-5.347656 1.394531-8.546875 6.855469-7.152344 12.199219 1.394532 5.34375 6.863282 8.546875 12.203126 7.148437 6.503906-1.695312 13.242187-2.558594 20.023437-2.558594 43.601563 0 79.070313 35.472657 79.070313 79.070313s-35.46875 79.070313-79.070313 79.070313c-43.597656 0-79.070313-35.472657-79.070313-79.070313 0-6.777344.863282-13.515625 2.558594-20.019531 1.394532-5.347656-1.808594-10.808594-7.152344-12.199219-5.339843-1.398437-10.804687 1.804687-12.199218 7.148437-2.125 8.152344-3.203125 16.589844-3.203125 25.070313 0 54.628906 44.441406 99.070313 99.066406 99.070313 4.601563 0 9.128906-.324219 13.566406-.933594-.273437 1.628906-.425781 3.296875-.425781 5.003906v75.722656zm0 0"/><path d="m372 333.722656v-11.71875c0-5.523437-4.476562-10-10-10-5.519531 0-10 4.476563-10 10v11.71875c-11.636719 4.128906-20 15.242188-20 28.28125v20c0 13.035156 8.363281 24.152344 20 28.277344v51.71875c0 5.519531 4.480469 10 10 10 5.523438 0 10-4.480469 10-10v-51.71875c11.640625-4.125 20-15.242188 20-28.277344v-20c0-13.039062-8.359375-24.152344-20-28.28125zm-20 28.28125c0-5.515625 4.488281-10 10-10 5.515625 0 10 4.484375 10 10v20c0 5.511719-4.488281 10-10 10-5.515625 0-10-4.488281-10-10zm0 0"/><path d="m472 422v-20.003906c0-13.035156-8.363281-24.148438-20-28.277344v-51.714844c0-5.523437-4.480469-10-10-10-5.523438 0-10 4.476563-10 10v51.714844c-11.640625 4.128906-20 15.242188-20 28.277344v20.003906c0 13.035156 8.359375 24.152344 20 28.277344v11.722656c0 5.519531 4.476562 10 10 10 5.519531 0 10-4.480469 10-10v-11.722656c11.636719-4.125 20-15.242188 20-28.277344zm-40-20.003906c0-5.511719 4.484375-9.996094 10-9.996094 5.511719 0 10 4.484375 10 9.996094v20.003906c0 5.511719-4.488281 10-10 10-5.515625 0-10-4.488281-10-10zm0 0"/><path d="m282 472c5.523438 0 10-4.480469 10-10v-11.722656c11.640625-4.125 20-15.242188 20-28.277344v-20.003906c0-13.035156-8.359375-24.148438-20-28.277344v-51.714844c0-5.523437-4.476562-10-10-10-5.519531 0-10 4.476563-10 10v51.714844c-11.636719 4.128906-20 15.242188-20 28.277344v20.003906c0 13.035156 8.363281 24.152344 20 28.277344v11.722656c0 5.519531 4.476562 10 10 10zm-10-70.003906c0-5.511719 4.488281-9.996094 10-9.996094 5.515625 0 10 4.484375 10 9.996094v20.003906c0 5.511719-4.484375 10-10 10-5.511719 0-10-4.488281-10-10zm0 0"/><path d="m135.875 145.878906c2.558594 0 5.121094-.976562 7.074219-2.929687 3.902343-3.90625 3.902343-10.238281 0-14.144531-3.90625-3.902344-10.238281-3.902344-14.144531 0l-.003907.007812c-3.902343 3.902344-3.902343 10.234375.003907 14.136719 1.953124 1.953125 4.511718 2.929687 7.070312 2.929687zm0 0"/><path d="m417.003906 492h-.007812c-5.523438 0-9.996094 4.480469-9.996094 10 0 5.523438 4.480469 10 10.003906 10 5.519532 0 10-4.476562 10-10 0-5.519531-4.480468-10-10-10zm0 0"/></svg>