<svg height="472pt" viewBox="-20 0 472 472" width="472pt" xmlns="http://www.w3.org/2000/svg"><path d="m120 208h208l-16 48 72-48h16c17.671875 0 32-14.328125 32-32v-144c0-17.671875-14.328125-32-32-32h-248c-17.671875 0-32 14.328125-32 32zm0 0" fill="#2fbadb"/><path d="m272 248v-112h-128c-30.929688 0-56 25.070312-56 56v56zm0 0" fill="#354f5c"/><path d="m32 400h216c17.671875 0 32 14.328125 32 32v40h-280v-40c0-17.671875 14.328125-32 32-32zm0 0" fill="#0093ba"/><path d="m184 351.761719v56.238281c0 22.089844-17.910156 40-40 40s-40-17.910156-40-40v-56.238281zm0 0" fill="#f5be9a"/><path d="m104 377.816406c17.382812 19.21875 42.085938 30.1875 68 30.183594 4.015625-.03125 8.023438-.320312 12-.871094v-55.367187h-80zm0 0" fill="#ec917f"/><path d="m272 208v92c0 50.808594-41.191406 92-92 92s-92-41.191406-92-92v-20c-13.253906 0-24-10.746094-24-24s10.746094-24 24-24h32v-32h152" fill="#f5be9a"/><g fill="#a3783b"><path d="m200 360h-16c-4.417969 0-8-3.582031-8-8s3.582031-8 8-8h16c4.417969 0 8 3.582031 8 8s-3.582031 8-8 8zm0 0"/><path d="m200 320h-8c-4.417969 0-8-3.582031-8-8s3.582031-8 8-8h8v-32c0-8.835938 7.164062-16 16-16h24c4.417969 0 8 3.582031 8 8s-3.582031 8-8 8h-24v32c0 8.835938-7.164062 16-16 16zm0 0"/><path d="m176 272h-32c-4.417969 0-8-3.582031-8-8s3.582031-8 8-8h32c4.417969 0 8 3.582031 8 8s-3.582031 8-8 8zm0 0"/><path d="m176 288c0 4.417969-3.582031 8-8 8s-8-3.582031-8-8 3.582031-8 8-8 8 3.582031 8 8zm0 0"/><path d="m248 288c0 4.417969-3.582031 8-8 8s-8-3.582031-8-8 3.582031-8 8-8 8 3.582031 8 8zm0 0"/></g><path d="m344 160h16v16h-16zm0 0" fill="#eb4042"/><path d="m168 32h16v16h-16zm0 0" fill="#0093ba"/><path d="m200 32h80v16h-80zm0 0" fill="#0093ba"/><path d="m152 64h128v16h-128zm0 0" fill="#0093ba"/><path d="m152 96h128v16h-128zm0 0" fill="#0093ba"/><path d="m344 144c-.039062-15 8.539062-28.691406 22.054688-35.199219 13.433593-6.507812 20.585937-21.433593 17.238281-35.976562-3.347657-14.546875-16.304688-24.84375-31.230469-24.824219h-.0625c-17.246094.28125-31.28125 13.964844-32 31.199219-.128906 4.671875.773438 9.316406 2.640625 13.601562l-14.65625 6.398438c-2.824219-6.417969-4.191406-13.382813-4-20.390625 1.085937-25.855469 22.140625-46.382813 48.015625-46.808594h.097656c22.332032.027344 41.691406 15.457031 46.707032 37.21875 5.019531 21.761719-5.636719 44.105469-25.699219 53.910156-7.992188 3.808594-13.085938 11.859375-13.105469 20.710938zm0 0" fill="#eb4042"/></svg>