<svg height="512pt" viewBox="0 -61 512 512" width="512pt" xmlns="http://www.w3.org/2000/svg"><path d="m412 140v60l-40 20v-100zm0 0" fill="#f2f2f2"/><path d="m372 300c-11.835938-7.511719-19.703125-14.390625-40.140625-23.960938l.140625-.300781v-211.476562l-.140625-.300781c20.445313-9.574219 28.339844-16.472657 40.140625-23.960938zm0 0" fill="#ff641a"/><path d="m332 64.261719v211.476562l-.140625.300781c-50.449219-23.578124-122.160156-36.039062-171.859375-36.039062v-140c49.699219 0 121.410156-12.460938 171.859375-36.039062zm0 0" fill="#f2f2f2"/><path d="m160 100v140c-10.273438 0-92.023438 0-110 0-22.089844 0-40-17.910156-40-40v-60c0-22.089844 17.910156-40 40-40zm0 0" fill="#ff641a"/><path d="m130 350c0 16.570312-13.429688 30-30 30s-30-13.429688-30-30v-110h60zm0 0" fill="#61729b"/><g fill="#020202"><path d="m50 250h10v100c0 22.054688 17.945312 40 40 40s40-17.945312 40-40v-100h20c44.566406 0 116.03125 10.984375 167.621094 35.097656 18.742187 8.773438 26.253906 15.121094 34.378906 20.253906v24.648438c0 5.523438 4.476562 10 10 10s10-4.476562 10-10c0-10.988281 0-93.433594 0-103.820312l34.472656-17.234376c3.386719-1.695312 5.527344-5.15625 5.527344-8.945312v-60c0-3.789062-2.140625-7.25-5.527344-8.945312l-34.472656-17.234376c0-10.378906 0-92.832031 0-103.820312 0-5.523438-4.476562-10-10-10s-10 4.476562-10 10v24.648438c-8.144531 5.144531-15.675781 11.496093-34.375 20.253906-51.59375 24.113281-123.058594 35.097656-167.625 35.097656h-110c-27.570312 0-50 22.429688-50 50v60c0 27.570312 22.429688 50 50 50zm70 20h-10c-5.523438 0-10 4.476562-10 10s4.476562 10 10 10h10v20h-10c-5.523438 0-10 4.476562-10 10s4.476562 10 10 10h10v20c0 11.027344-8.972656 20-20 20s-20-8.972656-20-20v-100h40zm282-123.820312v47.640624l-20 10v-67.640624zm-40-87.5v222.640624c-5.949219-3.945312-12.65625-7.789062-20-11.46875v-54.847656c0-5.523437-4.476562-10-10-10s-10 4.476563-10 10v45.886719c-48.722656-19.582031-109.316406-29.367187-152-30.71875v-120.339844c42.679688-1.355469 103.273438-11.136719 152-30.71875v45.886719c0 5.523438 4.476562 10 10 10s10-4.476562 10-10v-54.851562c7.34375-3.679688 14.050781-7.527344 20-11.46875zm-342 81.320312c0-16.542969 13.457031-30 30-30h100v120h-100c-16.542969 0-30-13.457031-30-30zm0 0"/><path d="m462 170c0 5.523438 4.476562 10 10 10h30c5.523438 0 10-4.476562 10-10s-4.476562-10-10-10h-30c-5.523438 0-10 4.476562-10 10zm0 0"/><path d="m451.539062 83.800781 25.988282-15c4.785156-2.761719 6.425781-8.875 3.664062-13.660156-2.761718-4.785156-8.875-6.421875-13.660156-3.664063l-25.992188 15c-4.78125 2.761719-6.421874 8.878907-3.660156 13.660157 2.753906 4.769531 8.863282 6.433593 13.660156 3.664062zm0 0"/><path d="m441.539062 273.800781 25.992188 15c4.761719 2.75 10.886719 1.140625 13.660156-3.664062 2.761719-4.78125 1.121094-10.898438-3.664062-13.660157l-25.988282-15c-4.789062-2.761718-10.902343-1.117187-13.660156 3.664063-2.761718 4.785156-1.121094 10.898437 3.660156 13.660156zm0 0"/><path d="m342 170c0 5.523438-4.476562 10-10 10s-10-4.476562-10-10 4.476562-10 10-10 10 4.476562 10 10zm0 0"/></g></svg>