<?xml version="1.0" ?><svg enable-background="new 0 0 515.91 728.5" height="512" id="Layer_1" version="1.1" viewBox="0 0 512.00003 512" width="512" xml:space="preserve" xmlns="http://www.w3.org/2000/svg" xmlns:cc="http://creativecommons.org/ns#" xmlns:dc="http://purl.org/dc/elements/1.1/" xmlns:inkscape="http://www.inkscape.org/namespaces/inkscape" xmlns:rdf="http://www.w3.org/1999/02/22-rdf-syntax-ns#" xmlns:sodipodi="http://sodipodi.sourceforge.net/DTD/sodipodi-0.dtd" xmlns:svg="http://www.w3.org/2000/svg"><defs id="defs7"/><g id="g5785" transform="matrix(0.99987786,0,0,0.99987786,-8274.1546,218.08171)"><path d="m 8400.3897,-4.7324352 0,179.8573952 179.8574,0 0,-179.8573952 -179.8574,0 z m 107.1417,19.6836022 c 9.137,0 16.9899,0.669059 19.2767,0.976615 l 0,22.349988 -13.228,0 c -10.3679,0 -12.3829,4.93079 -12.3829,12.163755 l 0,15.938956 24.7436,0 -3.2274,24.985796 -21.5162,0 0,64.086773 0,0 -25.7864,0 0,-64.098464 -21.571,0 0,-24.984896 21.571,0 0,-18.420989 c 0,-21.37606 13.0499,-33.009225 32.1206,-33.009225 z" id="path5690" style="fill:#1968c0;fill-opacity:1;fill-rule:nonzero;stroke:none"/><path d="m 8646.3354,-184.04301 c -29.3309,0 -53.1454,23.80572 -53.1454,53.14536 0,4.17423 0.4735,8.2298 1.4051,12.08416 -44.1801,-2.20233 -83.3331,-23.37145 -109.5381,-55.51847 -4.5547,7.84971 -7.1817,16.96329 -7.1817,26.69758 0,18.44054 9.4116,34.7111 23.6686,44.21493 -8.6957,-0.26411 -16.8906,-2.66616 -24.0746,-6.65098 l 0,0.65573 c 0,25.735732 18.3101,47.222368 42.6225,52.083707 -4.4481,1.205868 -9.1566,1.873515 -13.9889,1.873515 -3.4415,0 -6.777,-0.355555 -10.0234,-0.967983 6.7616,21.112181 26.3859,36.482076 49.617,36.908234 -0.3384,0.264855 -0.6888,0.519756 -1.0305,0.780631 l 49.5544,0 c 10e-5,12.8752059 0,25.7504145 0,38.625621 68.5457,-20.57747202 105.4477,-86.353733 105.4477,-144.697765 0,-2.3244 -0.047,-4.58616 -0.1562,-6.86954 10.3653,-7.45813 19.3252,-16.76814 26.4167,-27.38454 -9.5006,4.17934 -19.6977,7.03638 -30.3822,8.30592 10.964,-6.56284 19.4143,-17.00826 23.3565,-29.41418 -10.2872,6.103 -21.6582,10.50744 -33.7546,12.89602 -9.7022,-10.31828 -23.5078,-16.76795 -38.8129,-16.76795 z m 79.5932,24.98019 c 0.051,-0.0225 0.105,-0.04 0.1561,-0.0625 l -0.062,-0.0625 c -0.029,0.0437 -0.065,0.0812 -0.094,0.1249 z" id="path5694" style="fill:#1968c0;fill-opacity:1"/><path d="m 8362.4198,-24.509595 a 16.018349,15.984874 0 0 0 -8.6574,2.510934 c -49.9631,30.8143515 -77.5968,73.541129 -77.5968,117.843637 0,44.302504 27.6337,87.008014 77.5968,117.822354 99.9261,61.62869 254.9209,61.6287 354.8471,0 49.963,-30.81434 77.6181,-73.51984 77.6181,-117.822354 -10e-5,-44.302508 -27.6551,-87.0292924 -77.6181,-117.843637 A 16.018349,15.984874 0 1 0 8691.785,5.1960242 c 43.3771,26.7525088 62.3931,59.5008688 62.3931,90.6489518 0,31.148084 -19.016,63.875154 -62.3931,90.627674 -86.7542,53.50503 -234.4226,53.50502 -321.1769,0 -43.3771,-26.75251 -62.4143,-59.4796 -62.4144,-90.627674 0,-31.148076 19.0373,-63.896436 62.4144,-90.6489518 a 16.018349,15.984874 0 0 0 -8.1883,-29.7056192 z" id="path5696" style="font-size:medium;font-style:normal;font-variant:normal;font-weight:normal;font-stretch:normal;text-indent:0;text-align:start;text-decoration:none;line-height:normal;letter-spacing:normal;word-spacing:normal;text-transform:none;direction:ltr;block-progression:tb;writing-mode:lr-tb;text-anchor:start;baseline-shift:baseline;color:#000000;fill:#19c029;fill-opacity:1;stroke:none;stroke-width:46.94535446;marker:none;visibility:visible;display:inline;overflow:visible;enable-background:accumulate;font-family:Sans;-inkscape-font-specification:Sans"/></g></svg>